# xmcd
#
# Track frame offsets:
#       150
#       12574
#       31033
#       49671
#       68240
#       87242
#       106941
#       124055
#       139404
#       151745
#       164676
#       188003
#       206453
#       222914
#       238659
#       263193
#
# Disc length: 3904 seconds
#
# Revision: 1
# Processed by: cddbd v1.4PL0 Copyright (c) Steve Scherf et al.
# Submitted via: MusiCat 1.1
#
DISCID=dd0f3e10
DTITLE=Tom Waits - For No Man
DYEAR=1900
DGENRE=
TTITLE0=Till the money runs out
TTITLE1=Big in Japan
TTITLE2=Get behind the mule
TTITLE3=Kentucky Avenue
TTITLE4=Martha
TTITLE5=Heart attack and vine
TTITLE6=Romeo is bleeding
TTITLE7=Somewhere
TTITLE8=Gods away on business
TTITLE9=The piano has been drinking
TTITLE10=Invitation to the blues
TTITLE11=Going out west
TTITLE12=Table top Joe
TTITLE13=Ol 55
TTITLE14=Hold on
TTITLE15=Tom Traubert's blues
EXTD=0\n\n\n
EXTT0=
EXTT1=
EXTT2=
EXTT3=
EXTT4=
EXTT5=
EXTT6=
EXTT7=
EXTT8=
EXTT9=
EXTT10=
EXTT11=
EXTT12=
EXTT13=
EXTT14=
EXTT15=
PLAYORDER=
